# xmcd CD database file
#
# Track frame offsets:
#	150
#	25736
#	45050
#	60096
#	82448
#	103056
#	116838
#	145309
#	166856
#	170095
#	182962
#
# Disc length: 2884 seconds
#
# Revision: 1
# Processed by: cddbd v1.5.2PL0 Copyright (c) Steve Scherf et al.
# Submitted via: CDex 1.70beta2
#
DISCID=900b420b
DTITLE=Johannes Enders - Dome
DYEAR=2007
DGENRE=Jazz
TTITLE0=The Essence Of A Day Part 1
TTITLE1=The Essence Of A Day Part 2
TTITLE2=Her Favorite Chord
TTITLE3=Kameido
TTITLE4=Leaving Cathexis
TTITLE5=Rain At Night
TTITLE6=One Of 8 Views
TTITLE7=Cascade Remix
TTITLE8=Organ Train Intro
TTITLE9=Organ Train
TTITLE10=No Hope and Then Hope Again
EXTD=YEAR: 2007
EXTT0=
EXTT1=
EXTT2=
EXTT3=
EXTT4=
EXTT5=
EXTT6=
EXTT7=
EXTT8=
EXTT9=
EXTT10=
PLAYORDER=
